<?xml version="1.0" encoding="UTF-8"?>
<!-- Generator: visioncortex VTracer 0.6.2 -->
<svg version="1.1" xmlns="http://www.w3.org/2000/svg" width="1280" height="454">
    <path d="M0 0 C422.4 0 844.8 0 1280 0 C1280 149.82 1280 299.64 1280 454 C857.6 454 435.2 454 0 454 C0 304.18 0 154.36 0 0 Z "
          fill="#FBFCFE" transform="translate(0,0)"/>
    <path d="M0 0 C0.91221817 0.20026794 1.82443634 0.40053589 2.76429749 0.60687256 C5.7353232 1.26116946 8.70355861 1.92727969 11.671875 2.59375 C13.74227385 3.05247055 15.81283239 3.51047093 17.88354492 3.96777344 C22.07037695 4.8938243 26.25609378 5.82468399 30.44091797 6.75976562 C35.81874524 7.96093091 41.1996791 9.1474267 46.58203125 10.328125 C54.55052509 12.07835079 62.51350685 13.85197907 70.4708252 15.65234375 C72.39147185 16.08687158 74.3124328 16.52000951 76.23339844 16.953125 C79.69481424 17.73858944 83.15264027 18.53796499 86.609375 19.34375 C87.5888208 19.56579102 88.5682666 19.78783203 89.57739258 20.01660156 C98.42319945 22.11489106 106.14391966 24.25221635 111.421875 32.09375 C116.91138273 41.34529798 118.94095408 51.05924582 116.921875 61.73828125 C115.73091969 66.14346254 114.19021851 69.64075702 111.609375 73.40625 C109.60378368 76.25314109 109.60378368 76.25314109 109.859375 79.65625 C110.375 80.460625 110.890625 81.265 111.421875 82.09375 C117.57482875 92.09229984 118.86609662 102.43970328 116.921875 114.08984375 C115.44328491 120.14702245 113.07559615 125.05363664 109.421875 130.09375 C109.89238281 130.795 110.36289062 131.49625 110.84765625 132.21875 C117.26499702 141.99755499 121.65355299 150.82995917 120.0546875 162.85546875 C117.77969049 172.69974593 112.5305171 181.56971993 104.25 187.484375 C99.32734216 190.28566648 94.09777968 192.28881149 88.828125 194.33984375 C84.72868731 195.94152196 80.7627225 197.75127838 76.796875 199.65625 C70.61865469 202.60683319 64.34724731 205.18112077 57.95703125 207.63671875 C55.37915257 208.69920355 52.95951421 209.80093069 50.484375 211.0625 C46.526362 213.07936741 42.48362539 214.76275172 38.359375 216.40625 C32.80269506 218.65422385 27.33203011 221.01313141 21.921875 223.59375 C15.91075796 226.45855455 9.81468106 229.03694414 3.63916016 231.52587891 C-1.90801243 233.77459477 -7.2845554 236.26908816 -12.6484375 238.9296875 C-17.82113872 240.98497412 -21.6728597 241.68257178 -26.92578125 239.6953125 C-34.75515587 236.24548045 -42.3784465 232.32021258 -50.015625 228.46875 C-51.64023057 227.65302029 -53.26490542 226.83742856 -54.88964844 226.02197266 C-64.52356381 221.17865505 -74.10498294 216.24743261 -83.625 211.18359375 C-92.46145279 206.49058051 -101.43581959 202.08250535 -110.49658203 197.84082031 C-118.12212373 194.26678507 -125.70229656 190.61088581 -133.203125 186.78125 C-134.02723877 186.37277832 -134.85135254 185.96430664 -135.70043945 185.54345703 C-136.83485474 184.95540283 -136.83485474 184.95540283 -137.9921875 184.35546875 C-138.6620166 184.01475342 -139.3318457 183.67403809 -140.02197266 183.32299805 C-142.00526046 181.75634381 -142.21427395 180.54507568 -142.578125 178.09375 C-138.36400244 174.24204198 -134.10015713 172.55183046 -128.828125 170.65625 C-117.71792267 167.29645567 -117.71792267 167.29645567 -109.578125 160.09375 C-109.34207055 158.08699521 -109.34207055 158.08699521 -109.328125 155.84375 C-109.28945312 154.72226562 -109.28945312 154.72226562 -109.25 153.578125 C-109.70555002 150.12896058 -110.65792479 148.01075434 -112.578125 145.09375 C-115.05191344 143.52750525 -117.24740848 142.3320181 -119.890625 141.15625 C-121.32565876 140.47945905 -122.76055169 139.8023694 -124.1953125 139.125 C-124.92202148 138.78984375 -125.64873047 138.4546875 -126.39746094 138.109375 C-129.80283457 136.52335235 -133.15807876 134.84053018 -136.515625 133.15625 C-137.65902344 132.59035156 -138.80242187 132.02445313 -139.98046875 131.44140625 C-142.578125 130.09375 -142.578125 130.09375 -143.578125 129.09375 C-143.71927661 126.42316149 -143.62059607 123.76942762 -143.578125 121.09375 C-136.3581757 117.26083155 -128.91119085 114.63004338 -121.18359375 112.00585938 C-120.23355469 111.67263672 -119.28351563 111.33941406 -118.3046875 110.99609375 C-117.44439941 110.70210693 -116.58411133 110.40812012 -115.69775391 110.10522461 C-113.2529127 109.16064022 -113.2529127 109.16064022 -111.578125 106.09375 C-111.06667835 101.38844082 -111.71449443 98.84114632 -114.578125 95.09375 C-117.08527651 93.60153483 -119.44104496 92.35620252 -122.078125 91.15625 C-123.517689 90.47034682 -124.95648808 89.78283601 -126.39453125 89.09375 C-127.1023877 88.75859375 -127.81024414 88.4234375 -128.53955078 88.078125 C-140.24695316 82.42492184 -140.24695316 82.42492184 -142.578125 80.09375 C-142.61905437 77.76077567 -142.62054223 75.42669775 -142.578125 73.09375 C-140.598125 72.10375 -140.598125 72.10375 -138.578125 71.09375 C-138.578125 70.43375 -138.578125 69.77375 -138.578125 69.09375 C-137.98797607 68.83158691 -137.39782715 68.56942383 -136.78979492 68.29931641 C-134.11379589 67.10863771 -131.4396995 65.91374423 -128.765625 64.71875 C-127.83685547 64.30625 -126.90808594 63.89375 -125.95117188 63.46875 C-124.6121582 62.86933594 -124.6121582 62.86933594 -123.24609375 62.2578125 C-122.42391357 61.89123535 -121.6017334 61.5246582 -120.75463867 61.14697266 C-118.37251307 60.05553588 -118.37251307 60.05553588 -115.578125 58.09375 C-114.588125 58.09375 -113.598125 58.09375 -112.578125 58.09375 C-112.18486681 51.11705843 -112.94716461 45.57718811 -115.578125 39.09375 C-116.57779297 38.93712891 -116.57779297 38.93712891 -117.59765625 38.77734375 C-121.30591321 37.9268261 -124.74903798 36.57857472 -128.265625 35.15625 C-128.94173828 34.89134766 -129.61785156 34.62644531 -130.31445312 34.35351562 C-133.1975575 33.19740511 -135.35896095 32.31291405 -137.578125 30.09375 C-137.203125 27.96875 -137.203125 27.96875 -136.578125 26.09375 C-127.24351872 23.51345233 -117.86166471 21.138848 -108.453125 18.84375 C-107.36265869 18.57353027 -106.27219238 18.30331055 -105.14868164 18.02490234 C-104.11219482 17.77434082 -103.07570801 17.5237793 -102.0078125 17.265625 C-101.08210449 17.0397168 -100.15639648 16.81380859 -99.20263672 16.58105469 C-96.578125 16.09375 -96.578125 16.09375 -93.95751953 16.10253906 C-90.99519601 16.09159676 -88.73624208 15.04424754 -86.015625 13.95703125 C-79.62804066 11.69476179 -72.81255413 10.25826224 -66.078125 9.53125 C-62.83819788 9.12625911 -60.54402796 8.37630263 -57.578125 7.09375 C-55.91390449 6.74841104 -54.24670404 6.4173746 -52.578125 6.09375 C-50.36882582 5.57201193 -48.16199271 5.0397763 -45.95703125 4.5 C-44.05920898 4.03787109 -44.05920898 4.03787109 -42.12304688 3.56640625 C-40.13056591 3.08012411 -38.13825496 2.59316917 -36.14624023 2.10498047 C-34.20863816 1.63057314 -32.27034105 1.15900742 -30.33203125 0.6875 C-29.18033447 0.40583984 -28.0286377 0.12417969 -26.84204102 -0.16601562 C-17.30169413 -2.32970264 -9.44813111 -2.14747286 0 0 Z "
          fill="#172488" transform="translate(195.578125,113.90625)"/>
    <path d="M0 0 C19.92125692 -0.42061545 37.89912572 3.12803637 54.171875 15.1171875 C55.09613281 15.79652344 56.02039062 16.47585937 56.97265625 17.17578125 C74.70269665 30.9331155 86.59249231 51.79386424 89.42236328 74.09082031 C91.73093278 95.55290599 87.97066505 117.89658725 74.359375 135.2421875 C72.9754098 136.87730707 71.57939428 138.5022989 70.171875 140.1171875 C69.48222656 140.95121094 68.79257813 141.78523437 68.08203125 142.64453125 C54.8062465 158.22497302 36.47796974 167.68546998 16.171875 170.1171875 C-8.36714816 171.55319733 -32.79321576 166.74309526 -51.77148438 150.06567383 C-54.196691 147.81601729 -56.51414033 145.48184337 -58.828125 143.1171875 C-60.04435547 141.94929688 -60.04435547 141.94929688 -61.28515625 140.7578125 C-72.07242543 129.80515077 -76.92308761 115.92138935 -79.828125 101.1171875 C-80.01890625 100.17746094 -80.2096875 99.23773438 -80.40625 98.26953125 C-82.69272692 81.1844676 -80.83360169 63.52455335 -72.828125 48.1171875 C-72.54453125 47.48167969 -72.2609375 46.84617188 -71.96875 46.19140625 C-66.16775329 33.49536521 -56.72290758 23.77354466 -45.390625 15.9296875 C-44.67841797 15.42244141 -43.96621094 14.91519531 -43.23242188 14.39257812 C-36.19718089 9.46599248 -29.10540905 5.92244265 -20.890625 3.4296875 C-19.83379517 3.10834839 -19.83379517 3.10834839 -18.75561523 2.78051758 C-12.28916329 0.87185803 -6.69420368 0.2049246 0 0 Z "
          fill="#0F1012" transform="translate(1134.828125,149.8828125)"/>
    <path d="M0 0 C7.28581253 -0.09364197 14.57149047 -0.16423333 21.85778809 -0.20724869 C25.24297695 -0.22791829 28.62774725 -0.25584479 32.01269531 -0.30175781 C59.2782207 -0.64434017 79.90785856 2.20015438 100.625 21.4375 C101.800625 22.7059375 101.800625 22.7059375 103 24 C103.56847656 24.56332031 104.13695312 25.12664062 104.72265625 25.70703125 C118.16195143 39.68069204 126.53652776 58.53416599 127 78 C127.05027344 79.03898437 127.10054688 80.07796875 127.15234375 81.1484375 C127.76212155 102.8565272 121.03896256 122.62015647 106.25 138.625 C89.07987454 156.77569584 70.25182253 166.28115911 45.12535095 167.09286499 C42.27708214 167.13020778 39.43053234 167.13880009 36.58203125 167.1328125 C35.55816818 167.13376923 34.53430511 167.13472595 33.47941589 167.13571167 C31.34264056 167.13638576 29.20586308 167.13458595 27.0690918 167.13037109 C23.78234375 167.12495026 20.49572859 167.13037321 17.20898438 167.13671875 C15.1249997 167.13605902 13.0410151 167.13478006 10.95703125 167.1328125 C9.97176956 167.13483673 8.98650787 167.13686096 7.97138977 167.13894653 C7.06922226 167.13579437 6.16705475 167.13264221 5.23754883 167.12939453 C4.44101395 167.12859894 3.64447906 167.12780334 2.82380676 167.12698364 C1 167 1 167 0 166 C-0.09692063 163.86106733 -0.12186803 161.71887033 -0.12025452 159.57774353 C-0.12153615 158.55965736 -0.12153615 158.55965736 -0.12284368 157.52100378 C-0.12450041 155.23004074 -0.118974 152.93914974 -0.11352539 150.64819336 C-0.11324353 149.01259869 -0.11340122 147.3770039 -0.1139679 145.7414093 C-0.11425593 141.28705414 -0.10835824 136.83272566 -0.10139394 132.37837672 C-0.09516139 127.72853526 -0.09455668 123.07869326 -0.09336853 118.42884827 C-0.09025492 109.61738298 -0.08204113 100.80593003 -0.07201904 91.99447018 C-0.06085882 81.96561892 -0.05534768 71.93676709 -0.05032361 61.90791118 C-0.03985854 41.27193389 -0.02225853 20.63596772 0 0 Z "
          fill="#0F1012" transform="translate(379,152)"/>
    <path d="M0 0 C8.05898489 0.06145454 16.11760235 0.13873306 24.17623043 0.23571491 C27.91897834 0.28027058 31.6616211 0.31955825 35.40454102 0.34643555 C39.02279425 0.37261767 42.6406396 0.41312244 46.25863838 0.46318626 C47.63273573 0.47975501 49.00690347 0.49133108 50.38108635 0.49761391 C62.06749113 0.55640495 70.42590972 2.29391914 80 9 C80.86625 9.598125 81.7325 10.19625 82.625 10.8125 C91.82836263 19.28928137 98.84655267 32.50432062 100 45 C100.10441406 46.08474609 100.10441406 46.08474609 100.2109375 47.19140625 C100.79419991 59.73154808 95.4065608 69.71298075 89 80 C89.58007812 80.23976563 90.16015625 80.47953125 90.7578125 80.7265625 C99.65462969 85.77945867 104.9241673 98.02842649 108.140625 107.28125 C110.59732367 117.91205516 110.55512237 130.41969059 105 140 C104.63777344 140.67804688 104.27554688 141.35609375 103.90234375 142.0546875 C98.02530353 152.294683 88.81887748 162.26467985 77.31535339 165.83268738 C68.59961268 167.99380382 60.30951299 168.4273379 51.36328125 168.36328125 C49.90691631 168.36276109 48.45055066 168.3632848 46.9941864 168.36479187 C43.97298424 168.36470303 40.9520539 168.35444417 37.9309082 168.33618164 C34.05605894 168.31327178 30.18159752 168.3129999 26.3066988 168.31969929 C23.31361931 168.32303209 20.32062878 168.31642599 17.32756615 168.30657005 C15.89739636 168.30272256 14.4672167 168.30156797 13.03704262 168.3031559 C11.05112096 168.30352537 9.06521227 168.28945529 7.0793457 168.2746582 C5.95051468 168.27005081 4.82168365 168.26544342 3.65864563 168.26069641 C1 168 1 168 -1 166 C-1.24888897 163.21665287 -1.24888897 163.21665287 -1.24723816 159.59156799 C-1.24965257 158.92635681 -1.25206699 158.26114562 -1.25455457 157.57577652 C-1.26021139 155.3363079 -1.25151367 153.09712203 -1.24291992 150.85766602 C-1.24399233 149.25634687 -1.24593038 147.6550281 -1.24867249 146.05371094 C-1.25353105 141.69629077 -1.24585226 137.33897259 -1.23571944 132.98156476 C-1.22695371 128.42789143 -1.22869611 123.87422143 -1.2290802 119.32054138 C-1.22814278 111.67127775 -1.21944889 104.02205371 -1.20581055 96.37280273 C-1.19008982 87.52279047 -1.18481221 78.67282162 -1.1855461 69.8227964 C-1.18615608 61.31933206 -1.18105299 52.81588189 -1.17275429 44.3124218 C-1.16921922 40.68927843 -1.16739072 37.06614008 -1.16686058 33.44299507 C-1.16585736 29.17737103 -1.15976245 24.91178355 -1.14969444 20.64617157 C-1.14676897 19.07841402 -1.14554417 17.51065225 -1.14612198 15.94289207 C-1.14661135 13.80702749 -1.14096996 11.67126591 -1.13371277 9.53541565 C-1.13203692 8.33876061 -1.13036108 7.14210558 -1.12863445 5.90918827 C-1 3 -1 3 0 0 Z "
          fill="#0F1012" transform="translate(774,151)"/>
    <path d="M0 0 C0 0.99 0 1.98 0 3 C1.01660211 6.04980633 2.30782254 8.50021164 4 11.25 C9.37641725 20.59854642 9.31372803 32.56599198 6.8125 42.8125 C5.30941549 47.74088287 3.01441817 51.84177099 0 56 C0.47050781 56.70125 0.94101562 57.4025 1.42578125 58.125 C7.84312202 67.90380499 12.23167799 76.73620917 10.6328125 88.76171875 C8.35781549 98.60599593 3.1086421 107.47596993 -5.171875 113.390625 C-10.09453284 116.19191648 -15.32409532 118.19506149 -20.59375 120.24609375 C-24.69318769 121.84777196 -28.6591525 123.65752838 -32.625 125.5625 C-38.80322031 128.51308319 -45.07462769 131.08737077 -51.46484375 133.54296875 C-54.04272243 134.60545355 -56.46236079 135.70718069 -58.9375 136.96875 C-62.895513 138.98561741 -66.93824961 140.66900172 -71.0625 142.3125 C-76.61917994 144.56047385 -82.08984489 146.91938141 -87.5 149.5 C-93.51111704 152.36480455 -99.60719394 154.94319414 -105.78271484 157.43212891 C-111.32988743 159.68084477 -116.7064304 162.17533816 -122.0703125 164.8359375 C-127.24301372 166.89122412 -131.0947347 167.58882178 -136.34765625 165.6015625 C-144.17703087 162.15173045 -151.8003215 158.22646258 -159.4375 154.375 C-161.06210557 153.55927029 -162.68678042 152.74367856 -164.31152344 151.92822266 C-173.94543881 147.08490505 -183.52685794 142.15368261 -193.046875 137.08984375 C-201.88332779 132.39683051 -210.85769459 127.98875535 -219.91845703 123.74707031 C-227.54399873 120.17303507 -235.12417156 116.51713581 -242.625 112.6875 C-243.44911377 112.27902832 -244.27322754 111.87055664 -245.12231445 111.44970703 C-245.87859131 111.0576709 -246.63486816 110.66563477 -247.4140625 110.26171875 C-248.0838916 109.92100342 -248.7537207 109.58028809 -249.44384766 109.22924805 C-251.42713546 107.66259381 -251.63614895 106.45132568 -252 104 C-247.78587744 100.14829198 -243.52203213 98.45808046 -238.25 96.5625 C-227.13979767 93.20270567 -227.13979767 93.20270567 -219 86 C-218.76394555 83.99324521 -218.76394555 83.99324521 -218.75 81.75 C-218.71132812 80.62851562 -218.71132812 80.62851562 -218.671875 79.484375 C-219.12742502 76.03521058 -220.07979979 73.91700434 -222 71 C-224.47378844 69.43375525 -226.66928348 68.2382681 -229.3125 67.0625 C-230.74753376 66.38570905 -232.18242669 65.7086194 -233.6171875 65.03125 C-234.34389648 64.69609375 -235.07060547 64.3609375 -235.81933594 64.015625 C-239.22470957 62.42960235 -242.57995376 60.74678018 -245.9375 59.0625 C-247.08089844 58.49660156 -248.22429687 57.93070313 -249.40234375 57.34765625 C-252 56 -252 56 -253 55 C-253.14115161 52.32941149 -253.04247107 49.67567762 -253 47 C-245.7800507 43.16708155 -238.33306585 40.53629338 -230.60546875 37.91210938 C-229.65542969 37.57888672 -228.70539063 37.24566406 -227.7265625 36.90234375 C-226.86627441 36.60835693 -226.00598633 36.31437012 -225.11962891 36.01147461 C-222.6747877 35.06689022 -222.6747877 35.06689022 -221 32 C-220.83333333 29 -220.83333333 29 -221 26 C-221 25.01 -221 24.02 -221 23 C-219.68 23.66 -218.36 24.32 -217 25 C-217.2687406 35.55417645 -222.32348277 41.32556438 -229 49 C-208.47549366 58.9230502 -187.94081463 68.8227137 -167.3359375 78.578125 C-166.48287521 78.98202454 -165.62981293 79.38592407 -164.75090027 79.80206299 C-160.45765853 81.83447579 -156.1639009 83.86578921 -151.86938477 85.89550781 C-150.27620269 86.64908487 -148.68302228 87.40266544 -147.08984375 88.15625 C-146.3626413 88.4995636 -145.63543884 88.8428772 -144.88619995 89.19659424 C-140.89907073 91.08322558 -136.9376594 93.01132206 -133 95 C-130.359298 85.39601831 -127.60663151 74.88369753 -131.5 65.3125 C-131.995 64.549375 -132.49 63.78625 -133 63 C-133 62.34 -133 61.68 -133 61 C-134.73068726 60.8618689 -134.73068726 60.8618689 -136.49633789 60.72094727 C-141.15448141 60.13191165 -144.8763136 58.52687963 -149.05859375 56.46484375 C-149.80601334 56.10789932 -150.55343292 55.7509549 -151.32350159 55.38319397 C-153.70014003 54.24529766 -156.06884485 53.09190747 -158.4375 51.9375 C-159.99102302 51.18968764 -161.54505653 50.44293482 -163.09960938 49.69726562 C-166.19640131 48.21062826 -169.29031357 46.71821725 -172.38256836 45.22216797 C-177.63291113 42.68767302 -182.90841915 40.20761592 -188.19114685 37.74143982 C-194.85825789 34.62148471 -201.43517406 31.32923027 -208 28 C-207.67 27.34 -207.34 26.68 -207 26 C-191.17596115 32.12543439 -175.61258898 39.55533999 -160.5 47.25 C-155.19206808 49.93696864 -149.8547291 52.53967512 -144.4375 55 C-143.79425781 55.30325195 -143.15101563 55.60650391 -142.48828125 55.91894531 C-136.43477839 58.61326065 -131.25008033 58.78464505 -125.0625 56.5 C-124.29035156 56.2215625 -123.51820313 55.943125 -122.72265625 55.65625 C-122.15417969 55.4396875 -121.58570313 55.223125 -121 55 C-121 55.99 -121 56.98 -121 58 C-123.31 58.99 -125.62 59.98 -128 61 C-127.855625 61.6290625 -127.71125 62.258125 -127.5625 62.90625 C-125.53964601 72.23385451 -125.99766427 79.87490696 -127.5625 89.2421875 C-128.05222697 91.86383319 -128.05222697 91.86383319 -128 94 C-121.00660337 91.35115295 -114.01410508 88.69994505 -107.0222168 86.04711914 C-104.64514291 85.14553742 -102.26786635 84.24448988 -99.89038086 83.34399414 C-96.46674618 82.04715197 -93.04385273 80.74837009 -89.62109375 79.44921875 C-88.0347538 78.84904182 -88.0347538 78.84904182 -86.41636658 78.23674011 C-82.216675 76.64096511 -78.02932992 75.04346712 -73.90649414 73.25708008 C-71.55017652 72.23795539 -69.4771608 71.57800419 -67 71 C-65.3255761 70.3530635 -63.65697379 69.69040574 -62 69 C-62 69.99 -62 70.98 -62 72 C-67.26412375 74.78104651 -72.50041906 76.96462915 -78.109375 78.94921875 C-83.87187953 81.04396702 -89.48901562 83.50162535 -95.12695312 85.90771484 C-99.94552295 87.96329623 -104.77135553 89.99976333 -109.61035156 92.00683594 C-111.16645785 92.65357075 -112.72061206 93.30502917 -114.27246094 93.96191406 C-116.38211304 94.84964362 -118.50110033 95.70952107 -120.625 96.5625 C-122.43871094 97.30693359 -122.43871094 97.30693359 -124.2890625 98.06640625 C-132.44612359 100.11855109 -138.78966588 97.62613267 -146.0625 93.9375 C-146.88468018 93.534104 -147.70686035 93.13070801 -148.55395508 92.71508789 C-151.04281494 91.48997656 -153.52185431 90.24661284 -156 89 C-157.40840523 88.30117781 -158.81723367 87.60320767 -160.2265625 86.90625 C-165.42592574 84.32657815 -170.6067462 81.71102283 -175.77734375 79.07421875 C-184.36052034 74.71630242 -193.05639539 70.67390549 -201.83496094 66.72460938 C-210.00603891 63.03407712 -218.01446498 59.07280071 -226 55 C-228.66457475 53.6624374 -231.33213673 52.33099992 -234 51 C-234 47 -234 47 -232 44.75 C-231.34 44.1725 -230.68 43.595 -230 43 C-232.41817328 43.61958171 -234.83442554 44.24543253 -237.25 44.875 C-237.93191406 45.04902344 -238.61382812 45.22304687 -239.31640625 45.40234375 C-242.74630957 46.30144462 -245.9129524 47.23369957 -249 49 C-249.0002331 51.39104892 -249.0002331 51.39104892 -248 54 C-245.82712507 55.48389106 -243.93170225 56.54819868 -241.5703125 57.63671875 C-240.90651581 57.961064 -240.24271912 58.28540924 -239.55880737 58.61958313 C-237.42206009 59.6594938 -235.27445566 60.67415757 -233.125 61.6875 C-231.05542521 62.68186031 -228.98843869 63.68144027 -226.92181396 64.68191528 C-225.50398142 65.36826549 -224.08521581 66.05269108 -222.66558838 66.73532104 C-217.27403295 69.34042131 -211.96789118 72.08626083 -206.6796875 74.89453125 C-196.87099854 80.10267748 -186.94881799 85.06606469 -177 90 C-173.64454015 91.66407927 -170.29025585 93.33047909 -166.9375 95 C-166.11797852 95.40742432 -165.29845703 95.81484863 -164.45410156 96.23461914 C-160.2179737 98.35143077 -156.0113551 100.51168535 -151.8359375 102.74609375 C-150.57148804 103.42188477 -150.57148804 103.42188477 -149.28149414 104.11132812 C-147.6937978 104.96412814 -146.10934973 105.82301851 -144.52905273 106.68945312 C-135.7940158 111.67907673 -135.7940158 111.67907673 -126.22265625 112.3828125 C-125.50980469 111.96773438 -124.79695312 111.55265625 -124.0625 111.125 C-122.72958673 110.37744018 -121.37892004 109.65884975 -120 109 C-119.34 109.33 -118.68 109.66 -118 110 C-117.67 109.34 -117.34 108.68 -117 108 C-112.30318039 105.06735166 -107.32410111 103.43341184 -102 102 C-100.6520257 101.36345658 -99.31403276 100.70394612 -98 100 C-97.01 99.67 -96.02 99.34 -95 99 C-94.401875 98.690625 -93.80375 98.38125 -93.1875 98.0625 C-90.53274496 96.77304755 -87.79823999 95.93274666 -85 95 C-82.74901101 93.97682319 -80.76480732 92.84744259 -78.6875 91.5 C-76 90 -76 90 -72.6875 89.0625 C-69.09766896 88.0281419 -66.14286587 86.6571405 -62.84765625 84.94921875 C-58.01186456 82.46486911 -53.46051403 81 -48 81 C-47.67 80.01 -47.34 79.02 -47 78 C-44 77 -44 77 -41.5625 76.5625 C-39.00824055 76.0018089 -37.30871421 75.20525468 -35 74 C-33.0014681 72.97629548 -31.00134891 71.95568626 -29 70.9375 C-27.96875 70.41027344 -26.9375 69.88304687 -25.875 69.33984375 C-23.50872127 68.2370807 -21.51317776 67.58160589 -19 67 C-9.54143022 62.18472811 -2.09178981 54.00607498 2.21875 44.23828125 C3.24452254 39.98645406 3.32963206 35.98339573 3.3125 31.625 C3.32861328 30.81289062 3.34472656 30.00078125 3.36132812 29.1640625 C3.36770196 21.20951907 1.46419872 15.02946065 -4 9 C-4.5775 9.144375 -5.155 9.28875 -5.75 9.4375 C-7.83333333 9.95833333 -9.91666667 10.47916667 -12 11 C-10.60667426 14.36720387 -9.0210714 15.9859524 -6 18 C-6.33 18.66 -6.66 19.32 -7 20 C-7.845625 19.34 -8.69125 18.68 -9.5625 18 C-14.77776827 14.96566209 -19.29107886 15.61601912 -25 17 C-25 16.01 -25 15.02 -25 14 C-22.75285923 12.86838496 -20.49793305 11.75852633 -18.23046875 10.66796875 C-12.41063038 7.83649411 -7.14871475 4.91750036 -2 1 C-1.34 0.67 -0.68 0.34 0 0 Z "
          fill="#172488" transform="translate(305,188)"/>
    <path d="M0 0 C12.63743202 12.59316781 19.04394729 27.10901165 19.48046875 44.84765625 C19.27801319 63.77725111 11.86174473 76.84942853 -0.76953125 90.22265625 C-12.69050954 101.45673802 -28.54636717 104.61786189 -44.375 104.43359375 C-60.83425754 103.41080905 -74.39512637 95.79323788 -85.76953125 84.22265625 C-96.82098021 71.29123108 -101.54517061 57.62398078 -100.55859375 40.578125 C-98.53740364 22.06326087 -90.28987714 7.75077748 -76.45800781 -4.43798828 C-69.41498599 -10.02474619 -60.65264271 -13.6098491 -51.76953125 -14.77734375 C-51.10308594 -14.89722656 -50.43664063 -15.01710937 -49.75 -15.140625 C-30.93646848 -18.03769943 -13.79633408 -12.70402536 0 0 Z "
          fill="#FBFCFE" transform="translate(1179.76953125,190.77734375)"/>
    <path d="M0 0 C1.05899248 3.87897244 0.96912572 5.97751568 -0.65234375 9.64453125 C-1.01650391 10.48564453 -1.38066406 11.32675781 -1.75585938 12.19335938 C-2.34077148 13.48983398 -2.34077148 13.48983398 -2.9375 14.8125 C-3.32357422 15.69615234 -3.70964844 16.57980469 -4.10742188 17.49023438 C-5.05990219 19.66565238 -6.0243014 21.83492068 -7 24 C-10.2882462 24 -12.87962188 23.31942989 -16.0625 22.5 C-29.7099856 19.32161207 -47.17834464 20.27450788 -59.51953125 27.46875 C-71.80346961 35.77125826 -82.77440929 45.89556492 -87.125 60.4375 C-87.45757813 61.52933594 -87.79015625 62.62117188 -88.1328125 63.74609375 C-91.99289369 78.23009211 -91.211655 95.62838969 -84 109 C-74.05392873 123.8960836 -59.27746046 135.09162843 -41.625 138.6875 C-32.45973789 139.4776088 -25.26914903 138.68529982 -16 137 C-15.67 122.81 -15.34 108.62 -15 94 C-23.46626538 93.75044408 -23.46626538 93.75044408 -31.93310547 93.52197266 C-32.98385254 93.4863623 -34.03459961 93.45075195 -35.1171875 93.4140625 C-36.19597168 93.3826416 -37.27475586 93.3512207 -38.38623047 93.31884766 C-41 93 -41 93 -43 91 C-43.22705078 88.56982422 -43.22705078 88.56982422 -43.1953125 85.5546875 C-43.18886719 84.47832031 -43.18242188 83.40195313 -43.17578125 82.29296875 C-43.15064453 80.60107422 -43.15064453 80.60107422 -43.125 78.875 C-43.11597656 77.73933594 -43.10695313 76.60367188 -43.09765625 75.43359375 C-43.07403098 72.62218701 -43.04109013 69.81119702 -43 67 C-40.11766955 66.03922318 -38.2806034 65.86833001 -35.28491211 65.85473633 C-33.85344093 65.84516655 -33.85344093 65.84516655 -32.39305115 65.83540344 C-30.85077599 65.83373421 -30.85077599 65.83373421 -29.27734375 65.83203125 C-27.6927108 65.82703865 -27.6927108 65.82703865 -26.07606506 65.82194519 C-23.84262528 65.81688159 -21.60917794 65.81453669 -19.37573242 65.81469727 C-15.94762847 65.81250647 -12.51984405 65.79433283 -9.09179688 65.77539062 C-6.92448027 65.77245753 -4.75716213 65.77047217 -2.58984375 65.76953125 C-1.04453224 65.75875298 -1.04453224 65.75875298 0.53199768 65.74775696 C1.48315964 65.75083359 2.43432159 65.75391022 3.41430664 65.75708008 C4.67314415 65.75494255 4.67314415 65.75494255 5.95741272 65.75276184 C8 66 8 66 10 68 C10.2143637 70.78448505 10.30411236 73.47072364 10.30639648 76.25756836 C10.31472 77.11135574 10.32304352 77.96514313 10.33161926 78.84480286 C10.3557808 81.67652907 10.36449841 84.50802529 10.37109375 87.33984375 C10.3800547 89.30278088 10.38917644 91.26571729 10.39845276 93.22865295 C10.41496157 97.3470323 10.42264643 101.46533015 10.42553711 105.58374023 C10.43092591 110.86812108 10.46861839 116.15173928 10.51428127 121.4359045 C10.54398167 125.49104122 10.55125912 129.54599265 10.55226326 133.60122871 C10.55647879 135.54975443 10.56896612 137.49828004 10.58978081 139.44669914 C10.61655315 142.16938715 10.61191292 144.89028596 10.59936523 147.61303711 C10.61419952 148.42197418 10.62903381 149.23091125 10.64431763 150.06436157 C10.61473083 152.31187439 10.61473083 152.31187439 10 156 C7.15435772 158.33742738 4.3111371 159.39356327 0.78515625 160.3515625 C0.01623047 160.56296875 -0.75269531 160.774375 -1.54492188 160.9921875 C-2.72924805 161.30542969 -2.72924805 161.30542969 -3.9375 161.625 C-4.72318359 161.8415625 -5.50886719 162.058125 -6.31835938 162.28125 C-25.96895786 167.60911101 -47.44158157 166.59455798 -66 158 C-66.95519531 157.56816406 -67.91039062 157.13632812 -68.89453125 156.69140625 C-87.91848188 147.68006122 -103.50093561 132.92608537 -111 113 C-118.41017927 91.17001243 -119.69884141 65.55067727 -109.4375 44.375 C-108.63214494 42.91270879 -107.82070131 41.45373372 -107 40 C-106.319375 38.4840625 -106.319375 38.4840625 -105.625 36.9375 C-94.65318185 17.10382872 -75.4665658 3.96699186 -54.23974609 -2.3894043 C-36.82734637 -7.34317714 -16.86718383 -6.28945838 0 0 Z "
          fill="#0F1012" transform="translate(690,155)"/>
    <path d="M0 0 C3.80445283 0.94347147 7.62067512 1.83760514 11.43499756 2.74017334 C12.23995667 2.93206238 13.04491577 3.12395142 13.87426758 3.32165527 C22.67675978 5.40938841 31.52354695 7.27989654 40.37484741 9.14758301 C52.92662512 11.79935311 65.47456162 14.46746518 77.96234131 17.40814209 C78.90931885 17.62615479 79.85629639 17.84416748 80.83197021 18.06878662 C90.22879652 20.32878282 99.13650822 22.4808149 104.46234131 31.09564209 C109.37384375 39.49731186 109.24279388 48.63314783 109.46234131 58.09564209 C108.80234131 58.09564209 108.14234131 58.09564209 107.46234131 58.09564209 C107.61702881 59.33314209 107.61702881 59.33314209 107.77484131 60.59564209 C107.35854633 65.25814584 105.49487563 68.55236514 102.46234131 72.09564209 C100.55999756 73.14642334 100.55999756 73.14642334 98.46234131 74.09564209 C97.01309672 75.05734044 95.57604142 76.03758855 94.14984131 77.03314209 C91.34265891 78.93702322 88.66626403 80.56409935 85.52484131 81.84564209 C82.41571811 82.88395887 82.41571811 82.88395887 80.46234131 85.09564209 C76.45740117 87.0239466 73.94716453 88.09564209 69.46234131 88.09564209 C69.13234131 88.75564209 68.80234131 89.41564209 68.46234131 90.09564209 C67.14234131 90.09564209 65.82234131 90.09564209 64.46234131 90.09564209 C64.13234131 90.75564209 63.80234131 91.41564209 63.46234131 92.09564209 C61.39593506 92.72845459 61.39593506 92.72845459 58.89984131 93.22064209 C58.07355225 93.38822021 57.24726318 93.55579834 56.39593506 93.72845459 C55.75784912 93.84962646 55.11976318 93.97079834 54.46234131 94.09564209 C51.75651343 90.26238592 51.13620513 87.7702606 51.46234131 83.09564209 C56.33797677 80.50857021 61.26974297 78.32314921 66.39984131 76.28314209 C67.03349609 76.02951904 67.66715088 75.775896 68.32000732 75.5145874 C71.85241516 74.10667119 75.3970362 72.74739145 78.96624756 71.43548584 C90.52189072 67.19355993 90.52189072 67.19355993 98.46234131 58.09564209 C101.09154523 51.6941021 101.42100767 45.83468884 99.14984131 39.34564209 C98.59296631 38.27314209 98.03609131 37.20064209 97.46234131 36.09564209 C97.09109131 35.31189209 96.71984131 34.52814209 96.33734131 33.72064209 C92.43955454 30.34256022 86.37915609 31.09564209 81.46234131 31.09564209 C81.13234131 31.75564209 80.80234131 32.41564209 80.46234131 33.09564209 C79.80234131 32.76564209 79.14234131 32.43564209 78.46234131 32.09564209 C78.13234131 32.75564209 77.80234131 33.41564209 77.46234131 34.09564209 C76.80234131 33.76564209 76.14234131 33.43564209 75.46234131 33.09564209 C75.13234131 33.75564209 74.80234131 34.41564209 74.46234131 35.09564209 C73.47234131 34.76564209 72.48234131 34.43564209 71.46234131 34.09564209 C71.13234131 34.75564209 70.80234131 35.41564209 70.46234131 36.09564209 C69.47234131 36.59064209 69.47234131 36.59064209 68.46234131 37.09564209 C67.47234131 36.76564209 66.48234131 36.43564209 65.46234131 36.09564209 C65.13234131 36.75564209 64.80234131 37.41564209 64.46234131 38.09564209 C62.39968309 38.48683589 60.36790863 38.60238728 58.27484131 38.75189209 C57.67671631 38.86532959 57.07859131 38.97876709 56.46234131 39.09564209 C56.13234131 39.75564209 55.80234131 40.41564209 55.46234131 41.09564209 C54.80234131 40.76564209 54.14234131 40.43564209 53.46234131 40.09564209 C53.13234131 40.75564209 52.80234131 41.41564209 52.46234131 42.09564209 C51.80234131 41.76564209 51.14234131 41.43564209 50.46234131 41.09564209 C50.13234131 41.75564209 49.80234131 42.41564209 49.46234131 43.09564209 C47.60687256 43.69329834 47.60687256 43.69329834 45.27484131 44.15814209 C44.46659912 44.32443115 43.65835693 44.49072021 42.82562256 44.66204834 C40.87906595 45.01918517 38.92149847 45.3157625 36.96234131 45.59564209 C36.13734131 45.76064209 35.31234131 45.92564209 34.46234131 46.09564209 C34.13234131 46.75564209 33.80234131 47.41564209 33.46234131 48.09564209 C31.60687256 48.69329834 31.60687256 48.69329834 29.27484131 49.15814209 C28.46659912 49.32443115 27.65835693 49.49072021 26.82562256 49.66204834 C24.87906595 50.01918517 22.92149847 50.3157625 20.96234131 50.59564209 C20.13734131 50.76064209 19.31234131 50.92564209 18.46234131 51.09564209 C18.13234131 51.75564209 17.80234131 52.41564209 17.46234131 53.09564209 C16.80234131 52.76564209 16.14234131 52.43564209 15.46234131 52.09564209 C15.13234131 52.75564209 14.80234131 53.41564209 14.46234131 54.09564209 C11.37286026 54.74227766 8.2784806 55.11992558 5.14984131 55.53314209 C4.26296631 55.71876709 3.37609131 55.90439209 2.46234131 56.09564209 C2.13234131 56.75564209 1.80234131 57.41564209 1.46234131 58.09564209 C-0.80328369 58.80657959 -0.80328369 58.80657959 -3.78765869 59.47064209 C-9.32778872 60.75873875 -14.66237006 62.38538383 -20.04156494 64.22845459 C-29.18167315 66.49560992 -35.98495416 66.3140152 -44.69000244 62.74017334 C-45.62883774 62.37688431 -46.56767303 62.01359528 -47.53495789 61.63929749 C-49.52817602 60.86694177 -51.51787506 60.08544951 -53.50415039 59.29541016 C-57.50384031 57.71351231 -61.52907844 56.20359969 -65.55554199 54.69145203 C-70.74393263 52.74002733 -75.92109342 50.75915148 -81.10015869 48.78314209 C-84.39933988 47.52613155 -87.69869066 46.2695668 -90.99804688 45.01301575 C-93.16206618 44.18879044 -95.32600781 43.36436116 -97.48986816 42.53971863 C-103.68580539 40.17900161 -109.88478077 37.82661368 -116.08843994 35.48626709 C-116.7796846 35.22525711 -117.47092926 34.96424713 -118.18312073 34.69532776 C-121.25950992 33.53374689 -124.33652917 32.37390626 -127.41485596 31.21746826 C-128.45311523 30.82535156 -129.49137451 30.43323486 -130.56109619 30.02923584 C-131.43685303 29.6997998 -132.31260986 29.37036377 -133.21490479 29.03094482 C-135.3894098 28.15533743 -137.45926453 27.17750063 -139.53765869 26.09564209 C-139.53765869 25.43564209 -139.53765869 24.77564209 -139.53765869 24.09564209 C-128.18511251 21.22700877 -116.80898331 18.4721674 -105.41265869 15.78314209 C-103.73955229 15.38751677 -102.06645677 14.99184542 -100.39337158 14.59613037 C-92.73703657 12.7866193 -85.07898992 10.9846674 -77.41656494 9.20111084 C-76.17012207 8.91091064 -74.9236792 8.62071045 -73.63946533 8.32171631 C-71.21071334 7.75761281 -68.78151779 7.19541541 -66.35186768 6.63519287 C-60.11454953 5.19095746 -53.89686131 3.69131329 -47.69390869 2.10736084 C-46.3874382 1.77774454 -45.08087975 1.44847667 -43.77423096 1.11956787 C-41.33390195 0.5019973 -38.89655209 -0.12753682 -36.4631958 -0.77203369 C-23.63840762 -3.99892188 -12.7379032 -3.16088018 0 0 Z "
          fill="#FBFCFE" transform="translate(201.53765869140625,117.90435791015625)"/>
    <path d="M0 0 C4.30985741 -0.04762367 8.61964605 -0.07621423 12.9296875 -0.1015625 C14.14100342 -0.11517822 15.35231934 -0.12879395 16.6003418 -0.14282227 C29.68212205 -0.20045125 41.66875001 1.26116073 52 10 C52.83015625 10.68320313 53.6603125 11.36640625 54.515625 12.0703125 C66.2360006 22.14141369 74.47046774 34.12145511 76.484375 49.76171875 C77.62527391 66.62353354 75.05079418 81.63820324 64 95 C58.80807453 100.70944859 53.48369818 105.80466588 47 110 C46.2575 110.53625 45.515 111.0725 44.75 111.625 C33.90759603 117.04620199 21.72982068 117.05417376 9.875 117.1875 C9.12782715 117.20063232 8.3806543 117.21376465 7.61083984 117.22729492 C5.73902801 117.23009897 3.86775095 117.12326321 2 117 C0 115 0 115 -0.24609566 112.95790672 C-0.24425207 112.11170076 -0.24240849 111.2654948 -0.24050903 110.39364624 C-0.24325836 109.4232692 -0.24600769 108.45289215 -0.24884033 107.45310974 C-0.24164978 106.38496536 -0.23445923 105.31682098 -0.22705078 104.21630859 C-0.22748886 102.53337959 -0.22748886 102.53337959 -0.22793579 100.81645203 C-0.22653815 97.09370289 -0.21095644 93.37115184 -0.1953125 89.6484375 C-0.19158392 87.07296864 -0.18873622 84.49749837 -0.18673706 81.92202759 C-0.17987096 75.82696847 -0.16409479 69.73199157 -0.14403808 63.63696349 C-0.12170114 56.69872788 -0.11069121 49.76048889 -0.10064721 42.82222629 C-0.07972912 28.5481124 -0.04453938 14.27405874 0 0 Z "
          fill="#FBFCFE" transform="translate(404,177)"/>
    <path d="M0 0 C7.92 0 15.84 0 24 0 C25.72586775 1.72586775 25.1396285 4.03660804 25.15148926 6.39050293 C25.15983292 7.55999985 25.16817657 8.72949677 25.17677307 9.93443298 C25.18095749 11.22901932 25.18514191 12.52360565 25.18945312 13.85742188 C25.19739065 15.22539019 25.2057782 16.59335597 25.21458435 17.96131897 C25.23267624 20.91333787 25.24767925 23.86535102 25.26036072 26.81739807 C25.28052887 31.48047492 25.30818786 36.14348844 25.33703613 40.80651855 C25.40232662 51.54707747 25.45769798 62.28768339 25.51302338 73.02829742 C25.56381584 82.86922514 25.61666741 92.71012993 25.67754889 102.55100107 C25.7059693 107.19127878 25.72953958 111.83154884 25.74947357 116.47187042 C25.76282262 119.35306344 25.78023701 122.23422126 25.79878426 125.11538506 C25.81029264 127.09876239 25.8168161 129.08216666 25.82322693 131.06556702 C25.83157059 132.23506393 25.83991425 133.40456085 25.84851074 134.60949707 C25.85366447 135.63231026 25.85881821 136.65512344 25.86412811 137.70893097 C25.74347434 139.96480938 25.74347434 139.96480938 27 141 C28.77389475 141.11799343 30.55240091 141.16734501 32.33007812 141.18945312 C34.03689758 141.21452942 34.03689758 141.21452942 35.77819824 141.2401123 C37.01670532 141.25368774 38.2552124 141.26726318 39.53125 141.28125 C40.79263794 141.29965942 42.05402588 141.31806885 43.3536377 141.33703613 C47.40237678 141.39601112 51.45115555 141.44893953 55.5 141.5 C60.82301358 141.56712918 66.14587701 141.64106492 71.46875 141.71875 C72.70725708 141.73232544 73.94576416 141.74590088 75.22180176 141.7598877 C76.92862122 141.78496399 76.92862122 141.78496399 78.66992188 141.81054688 C79.67728394 141.82307495 80.684646 141.83560303 81.72253418 141.84851074 C84 142 84 142 85 143 C85.08726223 144.78071246 85.10699041 146.5648314 85.09765625 148.34765625 C85.09282227 149.96704102 85.09282227 149.96704102 85.08789062 151.61914062 C85.07532227 153.32360352 85.07532227 153.32360352 85.0625 155.0625 C85.05798828 156.20267578 85.05347656 157.34285156 85.04882812 158.51757812 C85.03699747 161.34510351 85.0205141 164.1725264 85 167 C74.21268989 167.02313567 63.42538564 167.04092136 52.6380558 167.05181217 C47.6294632 167.05703831 42.62088754 167.0641311 37.61230469 167.07543945 C32.78182178 167.08627786 27.95135518 167.09227887 23.12086105 167.09487724 C21.27481199 167.09672976 19.42876385 167.10034709 17.58272171 167.10573006 C15.00385839 167.11295312 12.42506315 167.1139904 9.84619141 167.11352539 C9.07727066 167.11712067 8.30834991 167.12071594 7.51612854 167.12442017 C2.22810432 167.11405216 2.22810432 167.11405216 0 166 C0 111.22 0 56.44 0 0 Z "
          fill="#0F1012" transform="translate(904,152)"/>
    <path d="M0 0 C4.35382109 2.31296745 6.50894779 5.69846609 8.125 10.1875 C10.14928509 19.15219113 11.11504925 31.69422509 6.46875 39.94140625 C5.74171875 40.99134766 5.74171875 40.99134766 5 42.0625 C4.3090625 43.08214844 3.618125 44.10179687 2.90625 45.15234375 C-1.303042 51.11572845 -4.79552599 55.43804413 -11.75 58.125 C-14.16232993 58.84247664 -14.16232993 58.84247664 -15 61.0625 C-17.33333333 61.39583333 -19.66666667 61.72916667 -22 62.0625 C-22.33 62.7225 -22.66 63.3825 -23 64.0625 C-25.39871367 65.16461168 -27.67230654 65.98967923 -30.25 66.5625 C-30.8275 66.7275 -31.405 66.8925 -32 67.0625 C-32.33 67.7225 -32.66 68.3825 -33 69.0625 C-35.3125 69.625 -35.3125 69.625 -38 70.0625 C-40.18703385 70.44157282 -40.18703385 70.44157282 -42 71.0625 C-42.33 71.7225 -42.66 72.3825 -43 73.0625 C-45.56634394 73.70408599 -48.13823206 74.08449146 -50.75 74.5 C-51.86375 74.7784375 -51.86375 74.7784375 -53 75.0625 C-53.33 75.7225 -53.66 76.3825 -54 77.0625 C-55.32 77.0625 -56.64 77.0625 -58 77.0625 C-58.33 77.7225 -58.66 78.3825 -59 79.0625 C-60.32 79.0625 -61.64 79.0625 -63 79.0625 C-63.33 79.7225 -63.66 80.3825 -64 81.0625 C-65.32 81.0625 -66.64 81.0625 -68 81.0625 C-68.33 81.7225 -68.66 82.3825 -69 83.0625 C-70.6476038 83.77497732 -72.31763529 84.43650383 -74 85.0625 C-74.9590625 85.5575 -74.9590625 85.5575 -75.9375 86.0625 C-78.54675439 87.32759304 -81.25071683 88.14607228 -84 89.0625 C-85.33988437 89.7159004 -86.67264057 90.38401702 -88 91.0625 C-89.53570278 91.80414486 -91.07754388 92.53320177 -92.625 93.25 C-93.40101563 93.61480469 -94.17703125 93.97960937 -94.9765625 94.35546875 C-95.64429688 94.58878906 -96.31203125 94.82210937 -97 95.0625 C-97.66 94.7325 -98.32 94.4025 -99 94.0625 C-99.33 94.7225 -99.66 95.3825 -100 96.0625 C-100.99 96.5575 -100.99 96.5575 -102 97.0625 C-102.66 96.7325 -103.32 96.4025 -104 96.0625 C-104.33 96.7225 -104.66 97.3825 -105 98.0625 C-106.9375 99.25 -106.9375 99.25 -109 100.0625 C-109.66 99.7325 -110.32 99.4025 -111 99.0625 C-111.33 99.7225 -111.66 100.3825 -112 101.0625 C-115.4375 102.75 -115.4375 102.75 -119 104.0625 C-119.66 103.7325 -120.32 103.4025 -121 103.0625 C-121.33 103.7225 -121.66 104.3825 -122 105.0625 C-124 106.0625 -124 106.0625 -126.61499023 105.28393555 C-134.37245228 102.25295896 -141.72273511 98.80213847 -149.0625 94.875 C-151.41667223 93.63416065 -153.77178867 92.39536808 -156.12890625 91.16015625 C-157.0586174 90.67221085 -157.0586174 90.67221085 -158.0071106 90.17440796 C-166.11176916 85.93563733 -174.31056285 81.88417376 -182.5 77.8125 C-192.50689345 72.83251026 -202.4943319 67.83611112 -212.35131836 62.56347656 C-219.90272641 58.53863671 -227.5777658 54.7610468 -235.26074219 50.99462891 C-236.23817383 50.51171387 -237.21560547 50.02879883 -238.22265625 49.53125 C-239.53375366 48.88833008 -239.53375366 48.88833008 -240.87133789 48.23242188 C-243 47.0625 -243 47.0625 -245 45.0625 C-244.93359375 42.57421875 -244.93359375 42.57421875 -244 40.0625 C-241.84765625 38.76953125 -241.84765625 38.76953125 -239.0625 37.875 C-238.07765625 37.55660156 -237.0928125 37.23820312 -236.078125 36.91015625 C-231.755875 35.71989197 -227.42239029 34.79157085 -223 34.0625 C-223.825 34.805 -224.65 35.5475 -225.5 36.3125 C-228.44844853 38.93637385 -228.44844853 38.93637385 -228 43.0625 C-227.1181604 43.46190796 -227.1181604 43.46190796 -226.21850586 43.86938477 C-220.41056472 46.50122314 -214.60567664 49.13968167 -208.80371094 51.78466797 C-207.11215254 52.55562031 -205.4202113 53.32573453 -203.72753906 54.09423828 C-197.05574752 57.12731482 -190.4934792 60.29269984 -184.0625 63.8125 C-176.53169064 67.92964064 -168.74842993 71.44594374 -160.9296875 74.97753906 C-154.89999037 77.70807596 -148.95248587 80.54329353 -143.0625 83.5625 C-132.05617237 89.39721675 -132.05617237 89.39721675 -120 89.0625 C-115.93760079 87.64905459 -111.9732583 86.02024708 -108 84.375 C-105.75783526 83.46088168 -103.51564784 82.54681897 -101.2734375 81.6328125 C-100.19416992 81.18969727 -99.11490234 80.74658203 -98.00292969 80.29003906 C-94.82787167 78.9921373 -91.64176657 77.72554637 -88.45019531 76.46899414 C-83.65440288 74.57980089 -78.92651931 72.60546624 -74.25 70.4375 C-70.56027778 68.7387938 -66.85288419 67.14957686 -63.0625 65.6875 C-61.74958984 65.18089844 -61.74958984 65.18089844 -60.41015625 64.6640625 C-57.75412531 64.00113095 -56.52946455 64.08962902 -54 65.0625 C-51.05372381 66.88919124 -48.45273408 68.60976592 -46 71.0625 C-43.56164332 69.07146808 -43.56164332 69.07146808 -43.8046875 65.1484375 C-43.81799624 63.57800649 -43.84186398 62.00763779 -43.875 60.4375 C-43.88402344 59.63570312 -43.89304687 58.83390625 -43.90234375 58.0078125 C-43.92593777 56.02591477 -43.96180935 54.04417019 -44 52.0625 C-42.84242188 52.206875 -41.68484375 52.35125 -40.4921875 52.5 C-38.95314789 52.68768776 -37.41408409 52.87517727 -35.875 53.0625 C-35.11445313 53.15789062 -34.35390625 53.25328125 -33.5703125 53.3515625 C-29.35090048 53.86080188 -25.25995656 54.17138068 -21 54.0625 C-21.33 52.7425 -21.66 51.4225 -22 50.0625 C-21.21496094 49.7221875 -20.42992187 49.381875 -19.62109375 49.03125 C-10.89217442 45.00416575 -4.64013197 40.7988361 -1.0625 31.625 C0.04763419 28.52238005 0.04763419 28.52238005 0 27.0625 C-0.66 27.0625 -1.32 27.0625 -2 27.0625 C-1.67 28.0525 -1.34 29.0425 -1 30.0625 C-6.054596 37.644394 -13.24110978 42.72795008 -21.3125 46.6875 C-25 47.0625 -25 47.0625 -27.015625 45.90625 C-35.08556969 39.12996056 -40.27284822 30.85864228 -44 21.0625 C-44 20.4025 -44 19.7425 -44 19.0625 C-36.25445073 15.35382599 -28.36208612 12.25205055 -20.30859375 9.296875 C-17.17725442 8.19544323 -17.17725442 8.19544323 -15 7.0625 C-9.29008444 6.51346966 -6.50192237 7.54880449 -2 11.0625 C-2.825 10.299375 -3.65 9.53625 -4.5 8.75 C-7 6.0625 -7 6.0625 -7 3.0625 C-4.66581513 1.24702288 -3.00027447 0.09375858 0 0 Z "
          fill="#FBFCFE" transform="translate(300,195.9375)"/>
    <path d="M0 0 C3.79160297 -0.05786668 7.58309311 -0.09355054 11.375 -0.125 C12.45523438 -0.14175781 13.53546875 -0.15851563 14.6484375 -0.17578125 C15.6796875 -0.18222656 16.7109375 -0.18867188 17.7734375 -0.1953125 C19.20308838 -0.21102295 19.20308838 -0.21102295 20.66162109 -0.22705078 C23 0 23 0 25 2 C25.24888897 4.80455112 25.24888897 4.80455112 25.24723816 8.45985413 C25.24965257 9.13056 25.25206699 9.80126587 25.25455457 10.49229616 C25.26021145 12.75025146 25.2515137 15.00792634 25.24291992 17.26586914 C25.2439923 18.88028541 25.24593033 20.4947013 25.24867249 22.1091156 C25.25353062 26.50152403 25.2458534 30.89383127 25.23571944 35.28622746 C25.22695601 39.87420241 25.22869605 44.46217403 25.2290802 49.05015564 C25.22814287 56.75488994 25.21944909 64.45958491 25.20581055 72.16430664 C25.19007873 81.08479523 25.18481259 90.00524075 25.1855461 98.92574221 C25.18615548 107.49221781 25.18105865 116.05867931 25.17275429 124.62515068 C25.16921469 128.27785794 25.16739008 131.93056022 25.16686058 135.58326912 C25.16585939 139.88007636 25.15978123 144.17684713 25.14969444 148.47364235 C25.14676239 150.05514045 25.14554549 151.63664275 25.14612198 153.21814346 C25.14660924 155.36784483 25.14099106 157.51744253 25.13371277 159.66712952 C25.13203692 160.87300248 25.13036108 162.07887545 25.12863445 163.32129002 C25 166 25 166 24 167 C20.19411856 167.25208722 16.37574544 167.18522344 12.5625 167.1875 C11.48677734 167.19974609 10.41105469 167.21199219 9.30273438 167.22460938 C8.27599609 167.22654297 7.24925781 167.22847656 6.19140625 167.23046875 C5.24467041 167.23457764 4.29793457 167.23868652 3.32250977 167.24291992 C1 167 1 167 -1 165 C-1.24888897 162.21385956 -1.24888897 162.21385956 -1.24723816 158.58483887 C-1.24965257 157.91892211 -1.25206699 157.25300536 -1.25455457 156.56690931 C-1.26021135 154.32510681 -1.25151374 152.08358678 -1.24291992 149.84179688 C-1.24399232 148.23885521 -1.24593036 146.63591392 -1.24867249 145.03297424 C-1.25353081 140.67148915 -1.24585287 136.31010596 -1.23571944 131.94863319 C-1.22695481 127.39182267 -1.22869608 122.83501548 -1.2290802 118.27819824 C-1.22814282 110.62473845 -1.21944902 102.97131824 -1.20581055 95.31787109 C-1.19008425 86.45988642 -1.1848124 77.60194513 -1.1855461 68.74394751 C-1.18615578 60.23514038 -1.18105582 51.72634743 -1.17275429 43.21754456 C-1.16921696 39.59078358 -1.1673904 35.96402763 -1.16686058 32.33726501 C-1.16585838 28.06918174 -1.15977181 23.80113509 -1.14969444 19.53306389 C-1.14676569 17.96327374 -1.14554483 16.39347937 -1.14612198 14.8236866 C-1.1466103 12.68747209 -1.14098047 10.55136124 -1.13371277 8.41516113 C-1.13203692 7.2175843 -1.13036108 6.02000748 -1.12863445 4.78614044 C-1 2 -1 2 0 0 Z "
          fill="#0F1012" transform="translate(528,152)"/>
    <path d="M0 0 C3.97915159 -0.02886984 7.95827653 -0.04675406 11.9375 -0.0625 C13.07380859 -0.07087891 14.21011719 -0.07925781 15.38085938 -0.08789062 C16.46044922 -0.09111328 17.54003906 -0.09433594 18.65234375 -0.09765625 C20.15269165 -0.10551147 20.15269165 -0.10551147 21.68334961 -0.11352539 C24 0 24 0 25 1 C25.09692063 3.13893267 25.12186803 5.28112967 25.12025452 7.42225647 C25.12110894 8.10098059 25.12196337 8.7797047 25.12284368 9.47899622 C25.12450041 11.76995926 25.118974 14.06085026 25.11352539 16.35180664 C25.11324353 17.98740131 25.11340122 19.6229961 25.1139679 21.2585907 C25.11425593 25.71294586 25.10835824 30.16727434 25.10139394 34.62162328 C25.09516139 39.27146474 25.09455668 43.92130674 25.09336853 48.57115173 C25.09025492 57.38261702 25.08204113 66.19406997 25.07201904 75.00552982 C25.06085882 85.03438108 25.05534768 95.06323291 25.05032361 105.09208882 C25.03985854 125.72806611 25.02225853 146.36403228 25 167 C21.02084841 167.02886984 17.04172347 167.04675406 13.0625 167.0625 C11.92619141 167.07087891 10.78988281 167.07925781 9.61914062 167.08789062 C8.53955078 167.09111328 7.45996094 167.09433594 6.34765625 167.09765625 C5.34742432 167.10289307 4.34719238 167.10812988 3.31665039 167.11352539 C1 167 1 167 0 166 C-0.09692063 163.86106733 -0.12186803 161.71887033 -0.12025452 159.57774353 C-0.12153615 158.55965736 -0.12153615 158.55965736 -0.12284368 157.52100378 C-0.12450041 155.23004074 -0.118974 152.93914974 -0.11352539 150.64819336 C-0.11324353 149.01259869 -0.11340122 147.3770039 -0.1139679 145.7414093 C-0.11425593 141.28705414 -0.10835824 136.83272566 -0.10139394 132.37837672 C-0.09516139 127.72853526 -0.09455668 123.07869326 -0.09336853 118.42884827 C-0.09025492 109.61738298 -0.08204113 100.80593003 -0.07201904 91.99447018 C-0.06085882 81.96561892 -0.05534768 71.93676709 -0.05032361 61.90791118 C-0.03985854 41.27193389 -0.02225853 20.63596772 0 0 Z "
          fill="#0F1012" transform="translate(1010,152)"/>
    <path d="M0 0 C3.97915159 -0.02886984 7.95827653 -0.04675406 11.9375 -0.0625 C13.07380859 -0.07087891 14.21011719 -0.07925781 15.38085938 -0.08789062 C16.46044922 -0.09111328 17.54003906 -0.09433594 18.65234375 -0.09765625 C20.15269165 -0.10551147 20.15269165 -0.10551147 21.68334961 -0.11352539 C24 0 24 0 25 1 C25.09692063 3.13893267 25.12186803 5.28112967 25.12025452 7.42225647 C25.12110894 8.10098059 25.12196337 8.7797047 25.12284368 9.47899622 C25.12450041 11.76995926 25.118974 14.06085026 25.11352539 16.35180664 C25.11324353 17.98740131 25.11340122 19.6229961 25.1139679 21.2585907 C25.11425593 25.71294586 25.10835824 30.16727434 25.10139394 34.62162328 C25.09516139 39.27146474 25.09455668 43.92130674 25.09336853 48.57115173 C25.09025492 57.38261702 25.08204113 66.19406997 25.07201904 75.00552982 C25.06085882 85.03438108 25.05534768 95.06323291 25.05032361 105.09208882 C25.03985854 125.72806611 25.02225853 146.36403228 25 167 C21.02084841 167.02886984 17.04172347 167.04675406 13.0625 167.0625 C11.92619141 167.07087891 10.78988281 167.07925781 9.61914062 167.08789062 C8.53955078 167.09111328 7.45996094 167.09433594 6.34765625 167.09765625 C5.34742432 167.10289307 4.34719238 167.10812988 3.31665039 167.11352539 C1 167 1 167 0 166 C-0.09692063 163.86106733 -0.12186803 161.71887033 -0.12025452 159.57774353 C-0.12153615 158.55965736 -0.12153615 158.55965736 -0.12284368 157.52100378 C-0.12450041 155.23004074 -0.118974 152.93914974 -0.11352539 150.64819336 C-0.11324353 149.01259869 -0.11340122 147.3770039 -0.1139679 145.7414093 C-0.11425593 141.28705414 -0.10835824 136.83272566 -0.10139394 132.37837672 C-0.09516139 127.72853526 -0.09455668 123.07869326 -0.09336853 118.42884827 C-0.09025492 109.61738298 -0.08204113 100.80593003 -0.07201904 91.99447018 C-0.06085882 81.96561892 -0.05534768 71.93676709 -0.05032361 61.90791118 C-0.03985854 41.27193389 -0.02225853 20.63596772 0 0 Z "
          fill="#0F1012" transform="translate(720,152)"/>
    <path d="M0 0 C5.38349102 4.21316689 5.86548617 9.00394159 6.73828125 15.5859375 C6.82464844 16.38257813 6.91101563 17.17921875 7 18 C6.34 18 5.68 18 5 18 C4.9175 19.258125 4.835 20.51625 4.75 21.8125 C4.26557295 25.74327948 4.26557295 25.74327948 2.125 27.8125 C1.42375 28.204375 0.7225 28.59625 0 29 C-0.474375 29.53625 -0.94875 30.0725 -1.4375 30.625 C-3.51390536 32.45223672 -5.29553697 32.46721759 -8 33 C-9.73173428 33.61355184 -11.44831059 34.27094236 -13.15063477 34.96191406 C-14.15260391 35.36613586 -15.15457306 35.77035767 -16.18690491 36.18682861 C-17.26089035 36.62533142 -18.33487579 37.06383423 -19.44140625 37.515625 C-20.56006577 37.96846863 -21.67872528 38.42131226 -22.83128357 38.88787842 C-26.41003291 40.33782247 -29.98625423 41.79389347 -33.5625 43.25 C-35.94320179 44.21523251 -38.32405954 45.18008045 -40.70507812 46.14453125 C-50.29120599 50.03158577 -59.87052124 53.93128033 -69.41281128 57.92498779 C-72.7807171 59.32439861 -76.16849537 60.66515125 -79.5625 62 C-83.82224142 63.68750673 -88.03523533 65.43554095 -92.1875 67.375 C-100.62495577 71.29790246 -109.34671321 74.58827796 -118 78 C-119.08006089 74.75981733 -118.92645816 74.02590622 -118.0625 70.875 C-116.01200122 62.18144696 -117.06001021 55.3824709 -120 47 C-112.52552708 42.98930721 -104.92056785 39.68947668 -97.03613281 36.59570312 C-87.97042478 33.02466253 -78.98763019 29.26196669 -70 25.5 C-59.38947708 21.06063322 -48.7684837 16.6646088 -38.07006836 12.44018555 C-34.01536611 10.83187574 -30.02221079 9.14653035 -26.0625 7.3125 C-7.18887468 -1.41210038 -7.18887468 -1.41210038 0 0 Z "
          fill="#FBFCFE" transform="translate(296,257)"/>
    <path d="M0 0 C2.9476906 2.14935773 3.75253038 2.75198002 5 6 C5.82642575 12.17990937 5.98771138 17.83463273 3.375 23.5625 C-1.31371807 28.37460538 -5.44308979 31.50165296 -11.68359375 34.04296875 C-12.6114846 34.42477043 -12.6114846 34.42477043 -13.55812073 34.81428528 C-14.85609536 35.34603146 -16.1561818 35.87264981 -17.45825195 36.39428711 C-19.43333694 37.18583159 -21.40154382 37.99277839 -23.36914062 38.80273438 C-29.18844079 41.17643308 -34.9334241 43.35266278 -41 45 C-43.54344286 42.72698066 -44.87616437 40.54913519 -46.25 37.4375 C-46.60578125 36.65246094 -46.9615625 35.86742187 -47.328125 35.05859375 C-48 33 -48 33 -47 31 C-45.0390625 30.1484375 -45.0390625 30.1484375 -42.625 29.375 C-41.83351563 29.11460937 -41.04203125 28.85421875 -40.2265625 28.5859375 C-38 28 -38 28 -35 28 C-35.495 27.01 -35.495 27.01 -36 26 C-37.32 26 -38.64 26 -40 26 C-40.33 26.66 -40.66 27.32 -41 28 C-43.07553479 28.47635225 -45.15378633 28.94303779 -47.2421875 29.359375 C-51.43086647 30.33238258 -55.44072867 31.77619369 -59.49609375 33.1953125 C-62 34 -62 34 -64 34 C-64.495 34.99 -64.495 34.99 -65 36 C-67.03182445 36.44769013 -69.06543699 36.88820951 -71.10546875 37.296875 C-80.71630467 39.41908693 -80.71630467 39.41908693 -89 44 C-86.36 43.67 -83.72 43.34 -81 43 C-80.0115904 44.55666955 -79.03464918 46.12062426 -78.0625 47.6875 C-77.51722656 48.55761719 -76.97195312 49.42773438 -76.41015625 50.32421875 C-75.02832828 52.94624689 -74.41519827 55.08310075 -74 58 C-75.89332534 58.81832722 -77.78977733 59.62942268 -79.6875 60.4375 C-81.27111328 61.11619141 -81.27111328 61.11619141 -82.88671875 61.80859375 C-86 63 -86 63 -88.83203125 63.53515625 C-89.54746094 63.68855469 -90.26289063 63.84195313 -91 64 C-91.33 64.66 -91.66 65.32 -92 66 C-94.01171875 66.67578125 -94.01171875 66.67578125 -96.6875 67.3125 C-103.63781147 69.08665846 -110.27634768 71.51666564 -117 74 C-116.51081928 69.59737355 -115.88228854 65.32860566 -114.9375 61 C-113.39107686 53.31474562 -113.78299978 47.74201916 -116.34375 40.296875 C-117 38 -117 38 -117 34 C-88.21743901 24.34122241 -59.30968379 15.13563486 -30.32470703 6.1027832 C-29.29525467 5.78178146 -28.26580231 5.46077972 -27.20515442 5.13005066 C-25.25681924 4.52260956 -23.30833116 3.91565859 -21.35966492 3.3092804 C-17.72578561 2.17618483 -14.10208665 1.0346218 -10.49707031 -0.18798828 C-6.72033102 -1.41613014 -3.75023512 -1.25521217 0 0 Z "
          fill="#FBFCFE" transform="translate(294,152)"/>
    <path d="M0 0 C6.77350826 1.93969029 13.36566717 4.16932458 19.94140625 6.6953125 C21.31853287 7.21905205 21.31853287 7.21905205 22.72348022 7.75337219 C24.6705066 8.49400007 26.61698958 9.23605787 28.56295776 9.97946167 C33.60397103 11.90464673 38.64947989 13.81795707 43.6953125 15.73046875 C44.68049362 16.10399979 45.66567474 16.47753082 46.68070984 16.86238098 C56.2603071 20.48833457 65.87749529 23.99879684 75.52734375 27.43359375 C76.30948242 27.71348145 77.09162109 27.99336914 77.89746094 28.28173828 C79.72667564 28.90662793 81.5865815 29.44021797 83.44921875 29.95703125 C87.48110456 31.60559712 88.36885235 34.1185151 90.0859375 37.95703125 C93.47031686 49.22383263 90.31179959 60.48295839 86 71 C81.82485015 70.43646403 78.37637709 69.47805768 74.54296875 67.7421875 C73.52122559 67.28489258 72.49948242 66.82759766 71.44677734 66.35644531 C69.83343506 65.62312988 69.83343506 65.62312988 68.1875 64.875 C65.93432581 63.86555189 63.68041695 62.85774205 61.42578125 61.8515625 C60.3270166 61.36075195 59.22825195 60.86994141 58.09619141 60.36425781 C54.05242582 58.58247559 49.97336224 56.90136185 45.875 55.25 C39.71775173 52.75519034 33.7162849 50.02202345 27.71875 47.16015625 C23.69574084 45.28318496 19.61733026 43.54254622 15.53125 41.80859375 C14.86127487 41.52312683 14.19129974 41.23765991 13.50102234 40.94354248 C9.38754119 39.19082049 9.38754119 39.19082049 5.26577759 37.45770264 C3.31541669 36.64302005 1.37036706 35.8166355 -0.57421875 34.98828125 C-1.71463623 34.50915283 -2.85505371 34.03002441 -4.0300293 33.53637695 C-6.97359022 32.01366188 -8.82189445 30.47087061 -11 28 C-10.18595703 27.22076172 -10.18595703 27.22076172 -9.35546875 26.42578125 C-1.76937719 19.21492469 -1.76937719 19.21492469 0.25 9.3125 C0.2396834 5.50724427 0.2396834 5.50724427 -1 2 C-0.67 1.34 -0.34 0.68 0 0 Z "
          fill="#FCFDFF" transform="translate(86,156)"/>
    <path d="M0 0 C4.46853055 1.48951018 6.78059523 5.04432619 9 9 C12.32820547 17.12268328 12.50609076 27.15478276 9.90234375 35.53125 C5.4573061 44.91916952 -0.65494645 51.03762028 -10.1875 55.05078125 C-10.95901901 55.39127502 -11.73053802 55.7317688 -12.5254364 56.08258057 C-15.01044761 57.17488702 -17.50472609 58.24387475 -20 59.3125 C-21.72564862 60.06552849 -23.45066208 60.82001412 -25.17504883 61.57592773 C-29.36805176 63.41007433 -33.56845669 65.22646252 -37.77154541 67.03735352 C-40.83637054 68.36129484 -43.89309195 69.70297409 -46.94921875 71.046875 C-56.3820603 75.1880847 -65.86197283 79.2074969 -75.3684082 83.17626953 C-81.31298729 85.67346057 -87.13388602 88.37553423 -92.9609375 91.13671875 C-100.45266562 94.63732931 -108.09354929 97.82974433 -115.72265625 101.01757812 C-117.1428752 101.63024548 -118.55015365 102.27507682 -119.93359375 102.96679688 C-124.42765341 105.17379054 -127.15650407 104.9986721 -132 104 C-135.27880859 102.65234375 -135.27880859 102.65234375 -138.6484375 100.9375 C-139.25856689 100.63026505 -139.86869629 100.32303009 -140.49731445 100.00648499 C-142.46166505 99.0140644 -144.41830319 98.00741447 -146.375 97 C-147.73351275 96.30972899 -149.09240178 95.62019806 -150.45166016 94.93139648 C-158.12799158 91.03135554 -165.76906656 87.06442253 -173.35961914 82.99975586 C-180.49621851 79.17854892 -187.74630346 75.59241617 -195 72 C-205.11162354 66.98850043 -215.19973834 61.94254737 -225.1875 56.6875 C-226.317323 56.09316162 -226.317323 56.09316162 -227.4699707 55.48681641 C-232.68609244 52.7278281 -237.85149107 49.88301346 -243 47 C-243 46.34 -243 45.68 -243 45 C-235.38444353 41.39190634 -228.31432473 38.51169541 -220 37 C-222.25740623 39.33524782 -224.2805761 41.18705073 -227 43 C-227 43.66 -227 44.32 -227 45 C-220.53187969 48.38725248 -213.9169179 51.4060209 -207.25 54.375 C-200.20322295 57.5147624 -193.29608541 60.81866072 -186.421875 64.3203125 C-182.66023885 66.16677774 -178.84931599 67.84688575 -175 69.5 C-169.99947971 71.64750657 -165.10224713 73.90331543 -160.25 76.375 C-154.40153627 79.3463969 -148.47910436 82.11376451 -142.5 84.8125 C-141.65083008 85.19776855 -140.80166016 85.58303711 -139.92675781 85.97998047 C-129.12281872 90.89737353 -129.12281872 90.89737353 -117.56054688 89.14648438 C-114.76833893 88.06187397 -112.00827488 86.91814431 -109.25 85.75 C-108.26717041 85.34104492 -107.28434082 84.93208984 -106.27172852 84.51074219 C-100.63216721 82.15206511 -95.04500301 79.70383179 -89.5078125 77.11328125 C-86.48300706 75.77049379 -83.40905471 74.60487996 -80.3125 73.4375 C-76.07772972 71.83825146 -72.06238959 70.10423869 -68.05078125 68.01953125 C-59.84465276 63.93991309 -51.12090386 60.87990412 -42.57592773 57.59106445 C-37.5137083 55.62833772 -32.57258283 53.49392775 -27.65625 51.1875 C-23.52380225 49.34005277 -19.28682422 47.7819548 -15.04296875 46.2109375 C-8.0217486 43.41687043 -3.002919 40.53879962 1 34 C3.26938661 27.42413959 3.67509093 21.39865034 1.0703125 14.8984375 C-0.48971102 12.13138848 -2.70748099 10.16859906 -5 8 C-5 6.68 -5 5.36 -5 4 C-2.5 1.75 -2.5 1.75 0 0 Z "
          fill="#FBFCFE" transform="translate(301,247)"/>
    <path d="M0 0 C15.73660823 6.66050185 31.06061716 14.17301573 46.42823792 21.6355896 C48.24875734 22.51904325 50.06994676 23.4011003 51.89135742 24.28271484 C54.19251914 25.39709498 56.49225116 26.51443408 58.7902832 27.63525391 C69.33717272 33.10395394 69.33717272 33.10395394 80.63842773 36.40234375 C83 37 83 37 85.3125 40.25 C89.75711569 50.42726288 86.6348804 61.08521461 83 71 C78.56535577 69.62250278 74.50112835 67.88829344 70.3359375 65.83984375 C69.71035446 65.53402374 69.08477142 65.22820374 68.44023132 64.91311646 C67.10650712 64.26108634 65.77351057 63.60756602 64.44119263 62.95266724 C54.71425071 58.17360036 44.97552763 53.44605535 35.0625 49.0625 C28.72733022 46.25722793 22.49675094 43.3154091 16.32055664 40.17602539 C6.63812855 35.26574719 -3.19543521 30.66000345 -13 26 C-13 23 -13 23 -11.609375 21.4921875 C-10.68898438 20.69167969 -10.68898438 20.69167969 -9.75 19.875 C-3.92294994 14.29515812 -2.11748918 7.61926236 0 0 Z "
          fill="#FCFDFF" transform="translate(89,212)"/>
    <path d="M0 0 C5.18714155 0.57058557 9.25529804 3.09930175 13.75 5.5625 C19.9275792 8.88597123 26.12491042 12.0728249 32.5 15 C39.44381053 18.20101274 46.20678357 21.6819573 52.95581055 25.27368164 C61.63600302 29.88936081 70.3956642 34.38331839 79.3046875 38.54296875 C83.45202089 40.78493303 85.37896254 43.98162827 86.75 48.4375 C87.58079087 56.95310645 85.90606271 63.47658357 82 71 C77.31981958 69.55102913 72.9480568 67.66493922 68.5390625 65.55078125 C67.83083344 65.21507614 67.12260437 64.87937103 66.39291382 64.53349304 C64.13538725 63.46306682 61.88001026 62.38821589 59.625 61.3125 C56.68108951 59.9097904 53.73596836 58.50968762 50.7890625 57.11328125 C49.69678596 56.59569748 49.69678596 56.59569748 48.58244324 56.06765747 C42.89322525 53.38712833 37.14824204 50.85181086 31.3769989 48.35383606 C26.81348367 46.373331 22.36144828 44.27321373 17.9375 42 C12.04987272 39.0033562 6.111335 36.15020132 0.11474609 33.37866211 C-4.30207334 31.33503236 -8.66519278 29.21163634 -13 27 C-12.62488281 26.57589844 -12.24976562 26.15179688 -11.86328125 25.71484375 C-10.78378369 24.47763622 -9.71694796 23.22931401 -8.66015625 21.97265625 C-7.65012861 20.77250576 -6.62075173 19.58786299 -5.55859375 18.43359375 C-1.03986036 13.05157995 -0.68590756 6.8078885 0 0 Z "
          fill="#FCFDFF" transform="translate(90,264)"/>
    <path d="M0 0 C-0.99 0.680625 -0.99 0.680625 -2 1.375 C-2.99 2.179375 -2.99 2.179375 -4 3 C-4 3.66 -4 4.32 -4 5 C-3.37134033 5.27150879 -2.74268066 5.54301758 -2.0949707 5.82275391 C8.42381117 10.36970014 18.92931743 14.91924701 29.30859375 19.77734375 C31.80692675 20.91229038 34.3178287 21.94373749 36.875 22.9375 C41.11227371 24.58571019 45.20899214 26.48527532 49.3125 28.4375 C55.05546944 31.16476148 60.85733215 33.5292825 66.81640625 35.75390625 C70.13031844 37.05100808 73.33870751 38.49351909 76.5625 40 C77.62855469 40.49628906 78.69460937 40.99257812 79.79296875 41.50390625 C81.94354022 42.50715701 84.09196245 43.51502692 86.23828125 44.52734375 C87.27339844 44.99269531 88.30851562 45.45804688 89.375 45.9375 C90.74785156 46.56978516 90.74785156 46.56978516 92.1484375 47.21484375 C97.98970541 48.82319286 103.30520592 46.72047827 108.8125 44.6875 C110.04226562 44.23503906 111.27203125 43.78257812 112.5390625 43.31640625 C116.04929533 41.98124997 119.53311425 40.59451488 123.01171875 39.1796875 C127.31991563 37.47893527 131.65783564 35.86173272 136 34.25 C137.27556763 33.77264404 137.27556763 33.77264404 138.5769043 33.28564453 C139.37652588 32.99028809 140.17614746 32.69493164 141 32.390625 C141.721875 32.12282227 142.44375 31.85501953 143.1875 31.57910156 C145 31 145 31 147 31 C148.98 34.96 150.96 38.92 153 43 C149.17861908 44.65755931 145.35635436 46.31269619 141.53149414 47.9621582 C140.23436608 48.52234382 138.93780115 49.08383545 137.6418457 49.64672852 C125.48341929 54.92586002 125.48341929 54.92586002 119.65234375 56.76171875 C115.93450527 57.5447614 115.93450527 57.5447614 115 60 C112 61 112 61 110.25 61.375 C107.76385286 61.99733576 107.76385286 61.99733576 104.6875 63.5625 C99.44626571 65.60569303 95.70943285 65.59009548 90.37890625 63.75 C89.10034898 63.18087998 87.82838909 62.59676722 86.5625 62 C85.87075684 61.68603271 85.17901367 61.37206543 84.46630859 61.04858398 C78.96351678 58.5238249 73.55522627 55.81217998 68.16259766 53.06152344 C62.27329357 50.07722492 56.26686255 47.39539655 50.20166016 44.78930664 C46.79278949 43.31010997 43.5092192 41.77479827 40.296875 39.90234375 C37.4926608 38.28427228 34.82062568 36.98418647 31.8125 35.8125 C30.99394531 35.48894531 30.17539063 35.16539062 29.33203125 34.83203125 C27.23328684 34.08323299 25.1709615 33.49408089 23 33 C23 32.34 23 31.68 23 31 C22.15824219 30.7421875 21.31648438 30.484375 20.44921875 30.21875 C16.74710067 28.91064033 13.30214985 27.28007392 9.8125 25.5 C9.13703125 25.15904297 8.4615625 24.81808594 7.765625 24.46679688 C-0.87709337 20.08269563 -9.4403074 15.54348034 -18 11 C-18.25 8.6875 -18.25 8.6875 -18 6 C-15.16169071 3.06570923 -11.69565243 2.00790522 -7.875 0.75 C-6.82054688 0.39421875 -5.76609375 0.0384375 -4.6796875 -0.328125 C-2 -1 -2 -1 0 0 Z "
          fill="#FBFCFE" transform="translate(74,182)"/>
    <path d="M0 0 C5.95898975 -0.12428105 11.91721295 -0.21465997 17.87719727 -0.2746582 C19.90141963 -0.29968848 21.92555264 -0.33372347 23.94946289 -0.37719727 C26.87148164 -0.43835747 29.79229816 -0.46632485 32.71484375 -0.48828125 C33.60896469 -0.51408768 34.50308563 -0.5398941 35.42430115 -0.56648254 C41.98055987 -0.56936091 46.71979945 1.06283112 52 5 C57.54014991 10.95051242 59.52264025 17.40410863 59.3046875 25.48046875 C58.46135011 32.45422021 54.61222205 36.83680025 49.5859375 41.45703125 C40.78113893 46.71064973 31.32969611 46.44127595 21.40185547 46.33618164 C18.97720898 46.31227529 16.55364313 46.31567799 14.12890625 46.32226562 C12.58593093 46.31669759 11.04296021 46.30959325 9.5 46.30078125 C8.77611084 46.30169266 8.05222168 46.30260406 7.30639648 46.30354309 C2.23115435 46.23115435 2.23115435 46.23115435 0 44 C-0.24050903 42.08908081 -0.24050903 42.08908081 -0.22705078 39.73388672 C-0.22689972 38.85312469 -0.22674866 37.97236267 -0.22659302 37.06491089 C-0.21627045 36.11278717 -0.20594788 35.16066345 -0.1953125 34.1796875 C-0.1924826 33.20589142 -0.18965271 32.23209534 -0.18673706 31.22879028 C-0.17551913 28.11073651 -0.1504117 24.99296732 -0.125 21.875 C-0.11497228 19.76432706 -0.10584607 17.65364962 -0.09765625 15.54296875 C-0.07557458 10.36188165 -0.04208129 5.18096115 0 0 Z "
          fill="#FBFCFE" transform="translate(799,248)"/>
    <path d="M0 0 C4.60813849 -0.04957858 9.21612037 -0.08580385 13.82446289 -0.10986328 C15.39089667 -0.11989726 16.95731183 -0.13352754 18.52368164 -0.15087891 C20.78015753 -0.17524225 23.03638494 -0.18650916 25.29296875 -0.1953125 C25.98899704 -0.20563507 26.68502533 -0.21595764 27.40214539 -0.22659302 C33.33848103 -0.2279511 37.34946539 0.92174041 41.5625 5.125 C46.93073472 10.84486581 49.21331548 15.57736019 49.625 23.5 C49.40576052 30.03938448 47.63475892 33.50816316 43 38 C42.43539062 38.5878125 41.87078125 39.175625 41.2890625 39.78125 C36.4915679 44.38337152 32.3319871 44.96259469 25.65087891 45.03759766 C24.52085449 44.99683105 23.39083008 44.95606445 22.2265625 44.9140625 C20.99035156 44.87023437 19.75414062 44.82640625 18.48046875 44.78125 C16.57201172 44.70390625 16.57201172 44.70390625 14.625 44.625 C13.32949219 44.58117187 12.03398438 44.53734375 10.69921875 44.4921875 C1.13073371 44.13073371 1.13073371 44.13073371 0 43 C-0.09268999 41.64905018 -0.11747326 40.29332909 -0.11352539 38.93920898 C-0.11344986 38.07839218 -0.11337433 37.21757538 -0.11329651 36.33067322 C-0.10813522 35.39526199 -0.10297394 34.45985077 -0.09765625 33.49609375 C-0.0962413 32.54307877 -0.09482635 31.59006378 -0.09336853 30.60816956 C-0.08775152 27.55124835 -0.07519616 24.49439923 -0.0625 21.4375 C-0.05748719 19.37044376 -0.05292391 17.30338638 -0.04882812 15.23632812 C-0.03777656 10.15752412 -0.02050055 5.0787743 0 0 Z "
          fill="#FBFCFE" transform="translate(799,177)"/>
    <path d="M0 0 C2.4891453 4.62269842 4.38974358 9.04018834 5.9375 14.0625 C7.57688524 19.22884949 9.67909684 22.75662374 13 27 C13 27.66 13 28.32 13 29 C10.09220459 31.69240315 7.80195807 32.24705897 4 33 C2.22204054 33.61199442 0.45793367 34.26513284 -1.29345703 34.94946289 C-2.83998459 35.54997215 -2.83998459 35.54997215 -4.41775513 36.16261292 C-6.07108353 36.81108437 -6.07108353 36.81108437 -7.7578125 37.47265625 C-10.09764469 38.38088915 -12.4374888 39.28909136 -14.77734375 40.19726562 C-18.46264538 41.633395 -22.14728576 43.07120322 -25.83154297 44.51000977 C-29.38869435 45.89755949 -32.94813742 47.27909656 -36.5078125 48.66015625 C-37.6140799 49.09449478 -38.72034729 49.52883331 -39.86013794 49.97633362 C-40.88485199 50.37352097 -41.90956604 50.77070831 -42.96533203 51.17993164 C-44.31837936 51.70835411 -44.31837936 51.70835411 -45.69876099 52.24745178 C-48 53 -48 53 -51 53 C-51.33 53.66 -51.66 54.32 -52 55 C-52.18235222 50.80589905 -51.9013848 47.16951383 -51 43.0625 C-49.27407146 34.88899557 -50.13932412 28.10723061 -52 20 C-47.83776343 17.84180326 -43.70220942 15.82974456 -39.33984375 14.109375 C-38.46650391 13.76358398 -37.59316406 13.41779297 -36.69335938 13.06152344 C-35.80455078 12.7112207 -34.91574219 12.36091797 -34 12 C-31.48323074 11.00123591 -28.96709426 10.00089531 -26.45117188 9 C-24.77201759 8.33199146 -23.09232688 7.66532975 -21.41210938 7 C-16.51451992 5.04858693 -11.69420306 2.99332237 -6.91845703 0.75878906 C-4.53795101 -0.18274984 -2.53300788 -0.32683973 0 0 Z "
          fill="#FBFCFE" transform="translate(228,229)"/>
    <path d="M0 0 C5.39610025 5.93571028 6.53255007 15.64699245 8.125 23.24707031 C11.0987775 37.06488128 18.02573715 49.02573715 28 59 C26.12475253 58.85738409 24.24981036 58.71075143 22.375 58.5625 C21.33085937 58.48128906 20.28671875 58.40007812 19.2109375 58.31640625 C16.1243765 58.01225608 13.05931091 57.50988515 10 57 C10 62.28 10 67.56 10 73 C6.09767674 72.02441919 4.94205219 71.41812926 2.0625 68.875 C1.41410156 68.31554687 0.76570313 67.75609375 0.09765625 67.1796875 C-5.26224767 61.6101784 -7.88117131 56.28332475 -9.9375 48.875 C-12.77993582 39.32100253 -16.58467816 30.62905387 -21.19140625 21.7890625 C-21.74948975 20.70564575 -21.74948975 20.70564575 -22.31884766 19.6003418 C-23.0500127 18.18668158 -23.79274576 16.77892902 -24.54833984 15.37817383 C-27.06475326 10.53447328 -27.06475326 10.53447328 -26.74047852 7.85791016 C-26 6 -26 6 -23.59375 4.83984375 C-22.5728125 4.54207031 -21.551875 4.24429688 -20.5 3.9375 C-19.41589844 3.61265625 -18.33179688 3.2878125 -17.21484375 2.953125 C-16.15394531 2.63859375 -15.09304687 2.3240625 -14 2 C-11.67257106 1.1536622 -9.35048664 0.29681285 -7.03515625 -0.58203125 C-4.34538251 -1.1344416 -2.59890844 -0.87475455 0 0 Z "
          fill="#FBFCFE" transform="translate(243,187)"/>
    <path d="M0 0 C4.35382109 2.31296745 6.50894779 5.69846609 8.125 10.1875 C10.14928509 19.15219113 11.11504925 31.69422509 6.46875 39.94140625 C5.9840625 40.64136719 5.499375 41.34132812 5 42.0625 C4.3090625 43.08214844 3.618125 44.10179687 2.90625 45.15234375 C-1.303042 51.11572845 -4.79552599 55.43804413 -11.75 58.125 C-14.16232993 58.84247664 -14.16232993 58.84247664 -15 61.0625 C-17.33333333 61.39583333 -19.66666667 61.72916667 -22 62.0625 C-22.33 62.7225 -22.66 63.3825 -23 64.0625 C-25.39871367 65.16461168 -27.67230654 65.98967923 -30.25 66.5625 C-30.8275 66.7275 -31.405 66.8925 -32 67.0625 C-32.495 68.0525 -32.495 68.0525 -33 69.0625 C-35.3125 69.625 -35.3125 69.625 -38 70.0625 C-40.18703385 70.44157282 -40.18703385 70.44157282 -42 71.0625 C-42.495 72.0525 -42.495 72.0525 -43 73.0625 C-45.0625 73.6875 -45.0625 73.6875 -47 74.0625 C-46 71.0625 -46 71.0625 -44 69.0625 C-43.85482256 66.1531442 -43.81369204 63.342554 -43.875 60.4375 C-43.88402344 59.63570312 -43.89304687 58.83390625 -43.90234375 58.0078125 C-43.92593777 56.02591477 -43.96180935 54.04417019 -44 52.0625 C-42.84242188 52.206875 -41.68484375 52.35125 -40.4921875 52.5 C-38.95314789 52.68768776 -37.41408409 52.87517727 -35.875 53.0625 C-35.11445313 53.15789062 -34.35390625 53.25328125 -33.5703125 53.3515625 C-29.35090048 53.86080188 -25.25995656 54.17138068 -21 54.0625 C-21.33 52.7425 -21.66 51.4225 -22 50.0625 C-21.21496094 49.7221875 -20.42992187 49.381875 -19.62109375 49.03125 C-11.23777278 45.16360744 -4.96299834 41.01504365 -1.125 32.375 C0.69049915 26.81712225 0.74367144 20.86082882 1 15.0625 C0.01 15.0625 -0.98 15.0625 -2 15.0625 C-1.896875 14.32 -1.79375 13.5775 -1.6875 12.8125 C-1.71027494 9.81789605 -1.71027494 9.81789605 -4.5 7.9375 C-5.325 7.31875 -6.15 6.7 -7 6.0625 C-7 5.0725 -7 4.0825 -7 3.0625 C-4.66581513 1.24702288 -3.00027447 0.09375858 0 0 Z "
          fill="#F9FAFD" transform="translate(300,195.9375)"/>
    <path d="M0 0 C0.91221817 0.20026794 1.82443634 0.40053589 2.76429749 0.60687256 C5.7353232 1.26116946 8.70355861 1.92727969 11.671875 2.59375 C13.74227385 3.05247055 15.81283239 3.51047093 17.88354492 3.96777344 C22.07037695 4.8938243 26.25609378 5.82468399 30.44091797 6.75976562 C35.81874524 7.96093091 41.1996791 9.1474267 46.58203125 10.328125 C54.55052509 12.07835079 62.51350685 13.85197907 70.4708252 15.65234375 C72.39147185 16.08687158 74.3124328 16.52000951 76.23339844 16.953125 C79.69481424 17.73858944 83.15264027 18.53796499 86.609375 19.34375 C87.5888208 19.56579102 88.5682666 19.78783203 89.57739258 20.01660156 C98.42319945 22.11489106 106.14391966 24.25221635 111.421875 32.09375 C116.9006744 41.3272511 119.06035185 51.19314931 116.8515625 61.84375 C115.58815081 66.31223764 114.10767196 70.2568972 111.421875 74.09375 C110.761875 73.76375 110.101875 73.43375 109.421875 73.09375 C109.89625 72.3925 110.370625 71.69125 110.859375 70.96875 C112.50927357 67.93293663 113.02555964 65.50206214 113.421875 62.09375 C114.081875 62.09375 114.741875 62.09375 115.421875 62.09375 C115.091875 61.43375 114.761875 60.77375 114.421875 60.09375 C114.29070163 57.76177901 114.19173102 55.42795492 114.109375 53.09375 C113.67471751 44.90280574 111.95236609 36.63857517 106.20117188 30.38623047 C98.56597973 24.84003025 87.94165849 23.06367252 78.859375 21.28125 C76.390306 20.77368476 73.92157193 20.26448826 71.453125 19.75390625 C70.80870956 19.62191833 70.16429413 19.48993042 69.50035095 19.35394287 C62.35781044 17.88802504 55.24073506 16.31053625 48.12432861 14.72329712 C45.8547237 14.21771386 43.58440725 13.71543056 41.31396484 13.21362305 C33.46186837 11.47319696 25.62633635 9.67732469 17.8046875 7.8046875 C15.4531504 7.24727161 13.10137869 6.69085599 10.74954224 6.13470459 C9.26555009 5.78030587 7.78279606 5.42067248 6.30148315 5.05523682 C-7.74789815 1.58931193 -19.30422465 1.2455801 -33.40478516 5.11236572 C-36.88717589 6.06612721 -40.38372933 6.96554063 -43.87890625 7.87109375 C-44.59728668 8.05849121 -45.31566711 8.24588867 -46.05581665 8.43896484 C-53.68417035 10.41321912 -61.37242743 12.07804928 -69.078125 13.71875 C-79.44472347 15.9360346 -89.74772123 18.32252226 -100.01708984 20.95654297 C-108.00145793 22.99075063 -116.02971595 24.76706617 -124.09594727 26.44580078 C-128.70508243 27.41540163 -133.14225838 28.47266918 -137.578125 30.09375 C-137.248125 28.77375 -136.918125 27.45375 -136.578125 26.09375 C-127.24351872 23.51345233 -117.86166471 21.138848 -108.453125 18.84375 C-107.36265869 18.57353027 -106.27219238 18.30331055 -105.14868164 18.02490234 C-104.11219482 17.77434082 -103.07570801 17.5237793 -102.0078125 17.265625 C-101.08210449 17.0397168 -100.15639648 16.81380859 -99.20263672 16.58105469 C-96.578125 16.09375 -96.578125 16.09375 -93.95751953 16.10253906 C-90.99519601 16.09159676 -88.73624208 15.04424754 -86.015625 13.95703125 C-79.62804066 11.69476179 -72.81255413 10.25826224 -66.078125 9.53125 C-62.83819788 9.12625911 -60.54402796 8.37630263 -57.578125 7.09375 C-55.91390449 6.74841104 -54.24670404 6.4173746 -52.578125 6.09375 C-50.36882582 5.57201193 -48.16199271 5.0397763 -45.95703125 4.5 C-44.05920898 4.03787109 -44.05920898 4.03787109 -42.12304688 3.56640625 C-40.13056591 3.08012411 -38.13825496 2.59316917 -36.14624023 2.10498047 C-34.20863816 1.63057314 -32.27034105 1.15900742 -30.33203125 0.6875 C-29.18033447 0.40583984 -28.0286377 0.12417969 -26.84204102 -0.16601562 C-17.30169413 -2.32970264 -9.44813111 -2.14747286 0 0 Z "
          fill="#152287" transform="translate(195.578125,113.90625)"/>
    <path d="M0 0 C0.99 0.33 1.98 0.66 3 1 C3 1.66 3 2.32 3 3 C1.78376953 3.45439453 1.78376953 3.45439453 0.54296875 3.91796875 C-5.86369154 6.34190891 -12.1340173 8.92122867 -18.3515625 11.79296875 C-21.07152505 13.0325977 -23.80353083 14.22477073 -26.5625 15.375 C-27.36816406 15.71273438 -28.17382812 16.05046875 -29.00390625 16.3984375 C-31 17 -31 17 -33 16 C-33 15.34 -33 14.68 -33 14 C-28.90194255 12.08571466 -24.93542738 10.25511656 -20.5625 9.0625 C-17.35229645 8.10507087 -14.87443833 6.93990594 -11.9375 5.375 C-8.1106082 3.38267923 -5.39749862 2.42138176 -1 3 C-0.67 2.01 -0.34 1.02 0 0 Z "
          fill="#26328F" transform="translate(258,266)"/>
    <path d="M0 0 C0.66 0.33 1.32 0.66 2 1 C2 1.66 2 2.32 2 3 C-1.94424587 4.6605529 -5.89126634 6.31428364 -9.84082031 7.9621582 C-11.17978961 8.52188336 -12.5180278 9.08336119 -13.85546875 9.64672852 C-21.45771635 12.84752513 -29.00868368 15.88257219 -37 18 C-33.15858564 12.23787846 -26.4540556 10.73763035 -20 9 C-18.6520257 8.36345658 -17.31403276 7.70394612 -16 7 C-15.01 6.67 -14.02 6.34 -13 6 C-12.401875 5.690625 -11.80375 5.38125 -11.1875 5.0625 C-9 4 -9 4 -5.9375 3 C-2.86144952 2.09322044 -2.86144952 2.09322044 0 0 Z "
          fill="#152287" transform="translate(223,281)"/>
    <path d="M0 0 C4.00795464 1.55146631 7.91825697 3.29230863 11.83984375 5.046875 C14.20455421 6.09025538 16.58965699 7.06696399 19 8 C18.67 8.99 18.34 9.98 18 11 C11.73 8.03 5.46 5.06 -1 2 C-0.67 1.34 -0.34 0.68 0 0 Z "
          fill="#1D298A" transform="translate(98,214)"/>
    <path d="M0 0 C6.07328688 -0.50610724 9.77228537 0.95842058 15 4 C15 4.66 15 5.32 15 6 C10.22628119 5.23004535 5.44320697 3.91865756 1 2 C0.67 1.34 0.34 0.68 0 0 Z "
          fill="#293490" transform="translate(82,209)"/>
</svg>
